# xmcd
#
# Track frame offsets:
#	150
#	12447
#	26572
#
# Disc length: 641 seconds
#
# Revision: 1
# Processed by: cddbd v1.4PL0 Copyright (c) Steve Scherf et al.
# Submitted via: audiograbber 1.82.02
#
DISCID=1a027f03
DTITLE=Dean Martin - Sway
DYEAR=1900
DGENRE=
TTITLE0=Sway
TTITLE1=That's Amore
TTITLE2=Sway (The Rip Off Artist Mix)
EXTD=
EXTT0=
EXTT1=
EXTT2=
PLAYORDER=
